<svg height="476pt" viewBox="0 0 476 476.18332" width="476pt" xmlns="http://www.w3.org/2000/svg"><path d="m182.605469 313.160156c12.097656 2.214844 24.425781 2.90625 36.695312 2.054688l-19.375-19.375zm0 0" fill="#78b9eb"/><path d="m315.300781 219.214844c.847657-12.269532.15625-24.597656-2.054687-36.695313l-17.320313 17.320313zm0 0" fill="#78b9eb"/><path d="m340.273438 351.5 11.3125-11.3125c6.25-6.25 16.378906-6.25 22.628906 0l89.371094 89.371094c6.25 6.25 6.25 16.378906 0 22.628906l-11.3125 11.3125c-6.25 6.25-16.378907 6.25-22.628907 0l-89.371093-89.371094c-6.25-6.25-6.25-16.378906 0-22.628906zm0 0" fill="#a0815c"/><path d="m337.925781 361.839844 24-24-48-48v-32l-56 56h32zm0 0" fill="#ffb655"/><path d="m469.238281 423.894531-89.371093-89.367187c-4.808594-4.785156-11.429688-7.296875-18.207032-6.902344l-39.734375-39.738281v-55.644531c.664063-3.960938 1.070313-8 1.375-12.152344.050781-.324219.082031-.652344.097657-.976563.753906-11.535156.21875-23.117187-1.601563-34.527343-.175781-1.105469-.488281-2.210938-.679687-3.3125-.054688-.660157-.1875-1.3125-.402344-1.9375-9.105469-43.28125-30.921875-82.863282-62.652344-113.671876-3.355469-3.34375-6.832031-6.488281-10.328125-9.601562v-.039062h-.058594c-30.277343-27.996094-67.921875-46.761719-108.503906-54.085938-11.039063-1.757812-22.234375-2.324219-33.390625-1.679688-1.609375-.367187-3.292969-.2031245-4.800781.46875-25.875 1.855469-50.269531 12.757813-68.910157 30.792969-.089843.082031-.203124.105469-.28125.183594-.082031.082031-.105468.191406-.183593.28125-17.902344 18.492187-28.777344 42.660156-30.738281 68.320313-.703126 1.496093-.87109425 3.191406-.46875 4.800781-.714844 11.347656-.175782 22.738281 1.597656 33.96875 7.316406 40.585937 26.078125 78.242187 54.074218 108.527343v.054688h.039063c3.121094 3.496094 6.261719 6.976562 9.597656 10.328125 30.8125 31.734375 70.390625 53.550781 113.671875 62.65625.628906.210937 1.277344.347656 1.9375.398437 1.105469.195313 2.207032.503907 3.3125.679688 8.277344 1.328125 16.648438 2 25.03125 2.019531 3.289063 0 6.496094-.195312 9.695313-.410156h.167969c4.457031-.3125 8.800781-.800781 13.105468-1.511719h55.367188l39.738281 39.734375c-.394531 6.777344 2.117187 13.398438 6.902344 18.210938l89.34375 89.390625c9.375 9.375 24.570312 9.375 33.945312 0l11.3125-11.3125c9.371094-9.371094 9.371094-24.570313 0-33.945313zm-246.898437-116.949219-11.101563-11.105468 36.6875-36.6875 26.75 26.753906c-14.949219 12.082031-33.179687 19.410156-52.335937 21.039062zm-95.613282-22.578124 25.214844-25.214844 36.6875 36.6875-8.625 8.625c-18.683594-3.929688-36.652344-10.707032-53.277344-20.097656zm-93.226562-98.789063 22.402344-22.402344 36.6875 36.6875-30.402344 30.402344c-11.351562-13.667969-20.988281-28.675781-28.6875-44.6875zm-15.671875-48.984375c-.695313-4.402344-1.144531-8.714844-1.4375-12.976562l28.222656 28.222656-17.886719 17.871094c-4.058593-10.714844-7.039062-21.8125-8.898437-33.117188zm20-87.503906 6.753906 6.75-23.023437 23.054687c3.5-10.875 9.03125-20.988281 16.300781-29.804687zm192.441406 13.0625-30.402343 30.398437-36.628907-36.710937 22.398438-22.398438c16.003906 7.707032 31.003906 17.351563 44.664062 28.710938zm-41.65625 41.6875-36.6875 36.6875-36.6875-36.6875 36.6875-36.6875zm115.933594 76.066406-8.621094 8.621094-36.6875-36.6875 25.214844-25.199219c9.386719 16.621094 16.164063 34.585937 20.09375 53.265625zm2.914063 20.15625-.222657-.222656.175781-.175782c.007813.128907.03125.265626.046876.398438zm-22.847657-.222656-36.6875 36.6875-36.6875-36.6875 36.6875-36.6875zm-84.6875-11.3125-36.6875-36.6875 36.6875-36.6875 36.6875 36.6875zm-96-96-36.6875-36.6875 36.6875-36.6875 36.6875 36.6875zm-11.3125 11.3125-36.6875 36.6875-36.6875-36.6875 36.6875-36.6875zm-36.6875-59.3125-6.800781-6.832032c8.871094-7.292968 19.050781-12.832031 29.992188-16.328124zm11.3125 107.3125 36.6875-36.6875 36.6875 36.6875-36.6875 36.6875zm84.6875 11.3125 36.6875 36.6875-36.6875 36.6875-36.6875-36.6875zm48 48 36.6875 36.6875-36.6875 36.6875-36.6875-36.6875zm0 96 .222657.222656c-.136719 0-.273438-.039062-.398438-.046875zm86.0625-32.558594-26.75-26.753906 36.6875-36.6875 11.101563 11.105468c-1.621094 19.15625-8.949219 37.386719-21.039063 52.335938zm-10.121093-162.007812-27.941407 27.941406-36.6875-36.6875 31.039063-31.039063c1.488281 1.414063 3.039062 2.726563 4.496094 4.191407 10.855468 10.867187 20.601562 22.789062 29.09375 35.59375zm-106.070313-85.945313-17.871094 17.886719-28.21875-28.214844c4.265625.296875 8.570313.734375 12.96875 1.433594 11.308594 1.859375 22.402344 4.835937 33.121094 8.894531zm-96.914063 215.550781 31.042969-31.039062 36.6875 36.6875-27.945312 27.945312c-12.800781-8.492187-24.722657-18.238281-35.589844-29.097656-1.464844-1.453125-2.777344-3.007812-4.195313-4.496094zm224.058594 65.992188c-1.507812-1.492188-3.539062-2.332032-5.65625-2.34375h-16.511718c6.148437-3.949219 11.859374-8.542969 17.039062-13.695313.070312-.070312.175781-.097656.25-.167969.070312-.070312.101562-.191406.183594-.28125 5.164062-5.28125 9.753906-11.105468 13.679687-17.367187v16.871094c.007813 2.121093.851563 4.152343 2.34375 5.65625l37.65625 37.664062-11.3125 11.320313zm160.984375 138.34375-11.3125 11.3125c-1.5 1.503906-3.539062 2.347656-5.660156 2.347656-2.125 0-4.160156-.84375-5.660156-2.347656l-89.367188-89.367188c-1.503906-1.5-2.347656-3.535156-2.347656-5.660156s.84375-4.160156 2.347656-5.660156l11.3125-11.3125c1.5-1.5 3.535157-2.34375 5.660157-2.34375 2.121093 0 4.15625.84375 5.660156 2.34375l89.367187 89.367187c1.5 1.503907 2.34375 3.539063 2.34375 5.660157 0 2.125-.84375 4.160156-2.34375 5.660156zm0 0" fill="#231f20"/></svg>